<svg width="1683.9999999999998" height="1552.9999999999998" xmlns="http://www.w3.org/2000/svg">

 <g>
  <title>background</title>
  <rect fill="none" id="canvas_background" height="1555" width="1686" y="-1" x="-1"/>
 </g>
 <g>
  <title>Layer 1</title>
  <path fill="#ffffff" id="svg_1" d="m1648.554034,358.737405q40,57 18,129l-275,906q-19,64 -76.5,107.5t-122.5,43.5l-923,0q-77,0 -148.5,-53.5t-99.5,-131.5q-24,-67 -2,-127q0,-4 3,-27t4,-37q1,-8 -3,-21.5t-3,-19.5q2,-11 8,-21t16.5,-23.5t16.5,-23.5q23,-38 45,-91.5t30,-91.5q3,-10 0.5,-30t-0.5,-28q3,-11 17,-28t17,-23q21,-36 42,-92t25,-90q1,-9 -2.5,-32t0.5,-28q4,-13 22,-30.5t22,-22.5q19,-26 42.5,-84.5t27.5,-96.5q1,-8 -3,-25.5t-2,-26.5q2,-8 9,-18t18,-23t17,-21q8,-12 16.5,-30.5t15,-35t16,-36t19.5,-32t26.5,-23.5t36,-11.5t47.5,5.5l-1,3q38,-9 51,-9l761,0q74,0 114,56t18,130l-274,906q-36,119 -71.5,153.5t-128.5,34.5l-869,0q-27,0 -38,15q-11,16 -1,43q24,70 144,70l923,0q29,0 56,-15.5t35,-41.5l300,-987q7,-22 5,-57q38,15 59,43zm-1064,2q-4,13 2,22.5t20,9.5l608,0q13,0 25.5,-9.5t16.5,-22.5l21,-64q4,-13 -2,-22.5t-20,-9.5l-608,0q-13,0 -25.5,9.5t-16.5,22.5l-21,64zm-83,256q-4,13 2,22.5t20,9.5l608,0q13,0 25.5,-9.5t16.5,-22.5l21,-64q4,-13 -2,-22.5t-20,-9.5l-608,0q-13,0 -25.5,9.5t-16.5,22.5l-21,64z"/>
 </g>
</svg>