<svg width="24" height="24" xmlns="http://www.w3.org/2000/svg">

 <g>
  <title>background</title>
  <rect fill="none" id="canvas_background" height="402" width="582" y="-1" x="-1"/>
 </g>
 <g>
  <title>Layer 1</title>
  <path fill="#ffffff" id="svg_1" d="m19,17l-14,0c-1.103,0 -2,0.897 -2,2s0.897,2 2,2l14,0c1.103,0 2,-0.897 2,-2s-0.897,-2 -2,-2z"/>
  <path fill="#ffffff" id="svg_2" d="m19,10l-14,0c-1.103,0 -2,0.897 -2,2s0.897,2 2,2l14,0c1.103,0 2,-0.897 2,-2s-0.897,-2 -2,-2z"/>
  <path fill="#ffffff" id="svg_3" d="m19,3l-14,0c-1.103,0 -2,0.897 -2,2s0.897,2 2,2l14,0c1.103,0 2,-0.897 2,-2s-0.897,-2 -2,-2z"/>
 </g>
</svg>